<svg width="160" height="188" viewBox="0 0 160 188" fill="none" xmlns="http://www.w3.org/2000/svg">
<path fill-rule="evenodd" clip-rule="evenodd" d="M0.0229998 53.6818C0.0239998 49.2658 3.087 43.8448 6.877 41.5648L73.134 1.70675C76.919 -0.570248 83.049 -0.570249 86.841 1.71475L153.121 41.6488C156.907 43.9288 159.974 49.3518 159.973 53.7868L159.945 133.39C159.944 137.813 156.876 143.255 153.097 145.544L86.697 185.749C82.916 188.039 76.794 188.038 73.007 185.739L6.84 145.554C3.06 143.259 -0.00199902 137.821 9.79194e-07 133.403L0.0229998 53.6818ZM13.959 47.2078L79.793 83.9668L142.559 47.6887L79.687 10.7708L13.959 47.2078ZM9.713 59.1047C9.713 60.7327 8.648 130.965 8.648 130.965C8.614 133.171 10.115 135.882 12.015 137.029L73.627 174.211L74.194 96.7977C74.194 96.7977 9.713 57.4757 9.713 59.1047ZM85.82 174.043L146.732 135.383C149.064 133.903 150.955 130.468 150.955 127.704V58.7098L85.82 96.2227V174.043Z" fill="#01FC87"/>
<path fill-rule="evenodd" clip-rule="evenodd" d="M29.888 97.8717C25.106 100.634 18.766 98.6067 15.728 93.3457C12.691 88.0847 14.106 81.5807 18.888 78.8197C23.671 76.0577 30.011 78.0847 33.048 83.3457C36.086 88.6067 34.671 95.1107 29.888 97.8717ZM61.888 118.872C57.106 121.634 50.766 119.607 47.728 114.346C44.691 109.085 46.106 102.581 50.888 99.8197C55.671 97.0577 62.011 99.0847 65.048 104.346C68.086 109.607 66.671 116.111 61.888 118.872ZM29.888 134.872C25.106 137.634 18.766 135.607 15.728 130.346C12.691 125.085 14.106 118.581 18.888 115.82C23.671 113.058 30.011 115.085 33.048 120.346C36.086 125.607 34.671 132.111 29.888 134.872ZM61.888 155.872C57.106 158.634 50.766 156.607 47.728 151.346C44.691 146.085 46.106 139.581 50.888 136.82C55.671 134.058 62.011 136.085 65.048 141.346C68.086 146.607 66.671 153.111 61.888 155.872ZM140.126 77.8197C135.343 75.0577 129.004 77.0847 125.966 82.3457C122.929 87.6067 124.343 94.1107 129.126 96.8717C133.909 99.6337 140.249 97.6067 143.286 92.3457C146.324 87.0847 144.909 80.5807 140.126 77.8197ZM123.888 106.82C119.106 104.058 112.766 106.085 109.728 111.346C106.691 116.607 108.106 123.111 112.888 125.872C117.671 128.634 124.011 126.607 127.048 121.346C130.086 116.085 128.671 109.581 123.888 106.82ZM106.888 134.82C102.106 132.058 95.766 134.085 92.728 139.346C89.691 144.607 91.106 151.111 95.888 153.872C100.671 156.634 107.011 154.607 110.048 149.346C113.086 144.085 111.671 137.581 106.888 134.82ZM80.628 34.5847C74.277 34.5847 69.128 39.5097 69.128 45.5847C69.128 51.6597 74.277 56.5847 80.628 56.5847C86.979 56.5847 92.128 51.6597 92.128 45.5847C92.128 39.5097 86.979 34.5847 80.628 34.5847Z" fill="#01FC87"/>
</svg>
