<svg width="42" height="35" viewBox="0 0 42 35" fill="none" xmlns="http://www.w3.org/2000/svg">
<path d="M23.0411 8.1075C23.0411 10.3075 23.622 12.1525 24.7836 13.65C25.6069 14.68 26.7231 15.3575 28.1347 15.68C29.5237 16 30.8368 16.0225 32.0238 15.75C32.4278 18.125 31.7712 20.64 30.1045 23.305C28.4378 25.9675 26.2786 27.9725 23.6447 29.3125L27.6372 35C29.6575 34.01 31.5768 32.755 33.3445 31.2375C35.1375 29.72 36.7284 27.975 38.1426 26.0025C39.5568 24.03 40.6175 21.8025 41.2993 19.2775C41.9811 16.7525 42.1705 14.1775 41.8448 11.5275C41.4205 8.0275 40.2791 5.2275 38.4204 3.1525C36.5643 1.05 34.2486 0 31.4808 0C29.0439 0 27.0211 0.725001 25.42 2.195C23.8341 3.635 23.0462 5.6075 23.0462 8.115L23.0411 8.1075ZM-1.25041e-06 8.1075C-1.25041e-06 10.3075 0.580827 12.1525 1.74248 13.65C2.56574 14.7 3.68699 15.38 5.0936 15.6925C6.50778 16.0025 7.80328 16.0175 8.98261 15.7475C9.38666 18.0975 8.75533 20.6225 7.08356 23.2975C5.41684 25.9475 3.26273 27.9475 0.628808 29.2975L4.61126 35C6.63152 34.01 8.53815 32.755 10.3185 31.2375C12.1278 29.6975 13.7347 27.9388 15.1015 26.0025C16.5056 24.0275 17.5511 21.8025 18.2329 19.2775C18.9228 16.754 19.109 14.1215 18.7809 11.5275C18.3617 8.0275 17.2253 5.2275 15.3717 3.1525C13.5206 1.0675 11.2125 0.0225019 8.44471 0.0225019C6.00272 0.0225019 3.97992 0.747499 2.37886 2.215C0.795477 3.655 -1.25041e-06 5.6275 -1.25041e-06 8.135V8.1075Z" fill="#01FC87"/>
</svg>
