<svg width="42" height="35" viewBox="0 0 42 35" fill="none" xmlns="http://www.w3.org/2000/svg">
<path d="M18.9589 26.8925C18.9589 24.6925 18.378 22.8475 17.2164 21.35C16.3931 20.32 15.2769 19.6425 13.8653 19.32C12.4763 19 11.1632 18.9775 9.97625 19.25C9.5722 16.875 10.2288 14.36 11.8955 11.695C13.5622 9.0325 15.7214 7.0275 18.3553 5.6875L14.3628 0C12.3425 0.99 10.4232 2.245 8.6555 3.7625C6.86251 5.28 5.27155 7.025 3.85736 8.9975C2.44318 10.97 1.38254 13.1975 0.700698 15.7225C0.0188579 18.2475 -0.170542 20.8225 0.155226 23.4725C0.579482 26.9725 1.72093 29.7725 3.57958 31.8475C5.4357 33.95 7.75143 35 10.5192 35C12.9561 35 14.9789 34.275 16.58 32.805C18.1659 31.365 18.9538 29.3925 18.9538 26.885L18.9589 26.8925ZM42 26.8925C42 24.6925 41.4192 22.8475 40.2575 21.35C39.4343 20.3 38.313 19.62 36.9064 19.3075C35.4922 18.9975 34.1967 18.9825 33.0174 19.2525C32.6133 16.9025 33.2447 14.3775 34.9164 11.7025C36.5832 9.0525 38.7373 7.0525 41.3712 5.7025L37.3887 0C35.3685 0.99 33.4618 2.245 31.6815 3.7625C29.8722 5.30249 28.2653 7.06124 26.8985 8.9975C25.4944 10.9725 24.4489 13.1975 23.7671 15.7225C23.0772 18.246 22.891 20.8785 23.2191 23.4725C23.6383 26.9725 24.7747 29.7725 26.6283 31.8475C28.4794 33.9325 30.7875 34.9775 33.5553 34.9775C35.9973 34.9775 38.0201 34.2525 39.6211 32.785C41.2045 31.345 42 29.3725 42 26.865V26.8925Z" fill="#01FC87"/>
</svg>
